<?xml version="1.0" standalone="no"?>
<!DOCTYPE svg PUBLIC "-//W3C//DTD SVG 20010904//EN"
 "http://www.w3.org/TR/2001/REC-SVG-20010904/DTD/svg10.dtd">
<svg version="1.0" xmlns="http://www.w3.org/2000/svg"
 width="512.000000pt" height="512.000000pt" viewBox="0 0 512.000000 512.000000"
 preserveAspectRatio="xMidYMid meet">
<metadata>
Created by potrace 1.11, written by Peter Selinger 2001-2013
</metadata>
<g transform="translate(0.000000,512.000000) scale(0.100000,-0.100000)"
fill="#000000" stroke="none">
<path d="M2337 5113 c-2 -2 -28 -5 -58 -8 -109 -9 -294 -45 -419 -81 -47 -14
-89 -26 -95 -27 -5 -1 -16 -6 -22 -10 -7 -5 -13 -5 -13 -1 0 3 -6 2 -12 -4 -7
-5 -28 -13 -45 -17 -18 -3 -33 -11 -33 -16 0 -5 -9 -9 -21 -9 -11 0 -47 -13
-81 -30 -33 -16 -66 -30 -73 -30 -7 0 -15 -3 -17 -7 -1 -5 -32 -23 -68 -40
-71 -35 -142 -75 -150 -83 -3 -3 -17 -11 -32 -17 -16 -7 -28 -17 -28 -23 0 -5
-4 -10 -9 -10 -12 0 -93 -53 -141 -92 -19 -16 -40 -32 -45 -36 -143 -100 -417
-392 -533 -568 -34 -52 -78 -123 -99 -159 -22 -38 -146 -285 -149 -295 -2 -10
-16 -45 -30 -78 -8 -18 -12 -37 -9 -42 3 -4 0 -10 -7 -12 -6 -2 -12 -11 -14
-19 -1 -7 -4 -23 -6 -34 -2 -11 -6 -24 -10 -30 -16 -26 -76 -284 -93 -400 -15
-103 -18 -167 -17 -390 2 -286 3 -315 14 -315 5 0 7 -3 5 -7 -6 -9 16 -155 33
-223 19 -75 51 -194 57 -210 3 -8 7 -21 9 -27 4 -20 37 -107 44 -118 4 -5 10
-23 14 -39 6 -24 70 -159 141 -296 43 -82 188 -294 253 -370 132 -153 190
-211 372 -369 19 -17 43 -33 53 -37 9 -3 17 -9 17 -13 0 -4 26 -25 58 -47 31
-21 59 -41 62 -45 3 -3 10 -8 15 -10 24 -10 161 -94 167 -104 4 -5 8 -6 8 -1
0 5 9 1 20 -9 11 -10 20 -15 20 -11 0 3 17 -4 37 -17 21 -13 40 -24 43 -24 3
0 26 -10 52 -22 26 -11 51 -21 57 -21 5 0 11 -3 13 -7 3 -9 125 -55 146 -56 6
0 12 -4 12 -8 0 -4 8 -8 18 -8 9 0 55 -12 102 -26 123 -38 140 -42 340 -75
109 -18 173 -21 385 -20 237 1 285 3 285 11 0 4 6 6 13 6 20 -2 127 13 197 29
36 7 76 16 90 18 45 8 203 57 266 82 33 13 64 24 68 24 4 0 33 12 64 26 68 31
94 41 106 42 5 0 12 4 15 9 3 4 33 22 66 39 92 48 128 68 141 79 7 6 42 28 78
50 36 22 66 43 66 48 0 4 5 7 11 7 6 0 16 6 24 12 7 7 25 22 41 33 141 101
375 336 492 495 23 30 45 60 49 65 24 31 73 104 73 109 0 3 8 15 18 26 9 11
17 24 17 28 1 4 10 21 21 39 11 17 40 71 64 120 24 48 54 109 66 134 13 25 21
49 17 53 -3 3 -1 6 6 6 7 0 10 4 7 8 -2 4 1 21 9 37 24 55 40 100 37 108 -1 4
2 7 6 7 4 0 8 8 9 18 0 9 12 55 26 102 14 47 28 99 30 115 3 17 10 50 15 75 6
25 13 69 17 99 3 30 8 58 10 62 21 33 22 623 2 656 -3 4 -8 31 -11 58 -3 28
-10 73 -16 100 -6 28 -13 66 -16 85 -4 19 -18 73 -32 120 -14 47 -27 91 -29
98 -7 27 -10 38 -20 62 -6 14 -19 50 -31 80 -11 30 -33 82 -48 115 -15 33 -28
62 -29 65 -1 3 -14 30 -30 60 -16 30 -29 57 -30 60 0 3 -10 20 -23 38 -13 17
-20 32 -15 32 4 0 3 4 -3 8 -6 4 -26 33 -45 65 -18 31 -37 57 -41 57 -5 0 -8
5 -8 10 0 13 -99 150 -109 150 -4 0 -14 12 -22 27 -16 31 -96 118 -194 214
-117 114 -145 139 -155 139 -5 0 -13 6 -17 13 -4 8 -46 42 -93 76 -47 34 -94
70 -105 79 -11 9 -20 14 -20 12 0 -2 -20 9 -45 25 -142 91 -328 179 -495 237
-33 11 -69 24 -80 29 -18 7 -107 31 -217 60 -43 11 -203 38 -268 45 -54 6
-508 12 -513 7z"/>
</g>
</svg>
